<mxfile host="app.diagrams.net" modified="2022-02-20T11:59:02.520Z" agent="5.0 (Windows)" etag="38gEn0ehw5EaNzHhxR20" version="16.6.1" type="github">
  <diagram id="sSgZ2VfOlHyiMhSfhE_q" name="Page-1">
    <mxGraphModel dx="1182" dy="722" grid="1" gridSize="10" guides="1" tooltips="1" connect="1" arrows="1" fold="1" page="1" pageScale="1" pageWidth="850" pageHeight="1100" math="0" shadow="0">
      <root>
        <mxCell id="0" />
        <mxCell id="1" parent="0" />
        <mxCell id="L-PwBOsEBAyQJKKIFI6x-3" value="User A" style="whiteSpace=wrap;html=1;aspect=fixed;" vertex="1" parent="1">
          <mxGeometry x="384" y="40" width="80" height="80" as="geometry" />
        </mxCell>
        <mxCell id="L-PwBOsEBAyQJKKIFI6x-4" value="&lt;div&gt;MetaMask/&lt;/div&gt;&lt;div&gt;phantom.app/&lt;/div&gt;&lt;div&gt;Trust Wallet/&lt;/div&gt;&lt;div&gt;.....&lt;br&gt;&lt;/div&gt;" style="whiteSpace=wrap;html=1;aspect=fixed;" vertex="1" parent="1">
          <mxGeometry x="446" y="160" width="80" height="80" as="geometry" />
        </mxCell>
        <mxCell id="L-PwBOsEBAyQJKKIFI6x-5" value="Crypto wallat" style="whiteSpace=wrap;html=1;aspect=fixed;" vertex="1" parent="1">
          <mxGeometry x="325" y="160" width="80" height="80" as="geometry" />
        </mxCell>
        <mxCell id="L-PwBOsEBAyQJKKIFI6x-7" value="" style="endArrow=classic;startArrow=classic;html=1;rounded=0;exitX=0;exitY=0.5;exitDx=0;exitDy=0;" edge="1" parent="1">
          <mxGeometry width="50" height="50" relative="1" as="geometry">
            <mxPoint x="587" y="320" as="sourcePoint" />
            <mxPoint x="547" y="319.5" as="targetPoint" />
          </mxGeometry>
        </mxCell>
        <mxCell id="L-PwBOsEBAyQJKKIFI6x-8" value="Coin Mint" style="whiteSpace=wrap;html=1;aspect=fixed;fillColor=#d5e8d4;strokeColor=#82b366;" vertex="1" parent="1">
          <mxGeometry x="610" y="280" width="80" height="80" as="geometry" />
        </mxCell>
        <mxCell id="L-PwBOsEBAyQJKKIFI6x-9" value="commodity (Gold, Silver, Real Estate)" style="whiteSpace=wrap;html=1;aspect=fixed;fillColor=#d5e8d4;strokeColor=#82b366;" vertex="1" parent="1">
          <mxGeometry x="730" y="280" width="80" height="80" as="geometry" />
        </mxCell>
        <mxCell id="L-PwBOsEBAyQJKKIFI6x-10" value="" style="shape=image;html=1;verticalAlign=top;verticalLabelPosition=bottom;labelBackgroundColor=#ffffff;imageAspect=0;aspect=fixed;image=https://cdn1.iconfinder.com/data/icons/CrystalClear/64x64/apps/package_system.png;rounded=0;sketch=0;fontColor=#393C56;strokeColor=#E07A5F;fillColor=#F2CC8F;" vertex="1" parent="1">
          <mxGeometry x="689" y="299.5" width="41" height="41" as="geometry" />
        </mxCell>
        <mxCell id="L-PwBOsEBAyQJKKIFI6x-11" value="&lt;b&gt;conversion from the real asset class world to protocol&lt;/b&gt;" style="text;html=1;align=center;verticalAlign=middle;resizable=0;points=[];autosize=1;strokeColor=none;fillColor=none;" vertex="1" parent="1">
          <mxGeometry x="570" y="230" width="320" height="20" as="geometry" />
        </mxCell>
        <mxCell id="L-PwBOsEBAyQJKKIFI6x-12" value="Exchange (coin VS. Commodity)" style="rounded=1;whiteSpace=wrap;html=1;arcSize=50;fillColor=#f8cecc;strokeColor=#b85450;" vertex="1" parent="1">
          <mxGeometry x="290" y="290" width="254" height="60" as="geometry" />
        </mxCell>
        <mxCell id="L-PwBOsEBAyQJKKIFI6x-13" value="" style="rounded=1;whiteSpace=wrap;html=1;gradientColor=none;fillColor=none;" vertex="1" parent="1">
          <mxGeometry x="590" y="270" width="240" height="100" as="geometry" />
        </mxCell>
        <mxCell id="L-PwBOsEBAyQJKKIFI6x-14" value="User A - Hold # of Coins that backed by a commidity" style="whiteSpace=wrap;html=1;aspect=fixed;fillColor=#fff2cc;strokeColor=#d6b656;" vertex="1" parent="1">
          <mxGeometry x="363" y="410" width="125" height="125" as="geometry" />
        </mxCell>
        <mxCell id="L-PwBOsEBAyQJKKIFI6x-15" value="" style="endArrow=none;dashed=1;html=1;rounded=0;entryX=0.5;entryY=1;entryDx=0;entryDy=0;" edge="1" parent="1" target="L-PwBOsEBAyQJKKIFI6x-3">
          <mxGeometry width="50" height="50" relative="1" as="geometry">
            <mxPoint x="424" y="150" as="sourcePoint" />
            <mxPoint x="434" y="120" as="targetPoint" />
            <Array as="points">
              <mxPoint x="424" y="150" />
            </Array>
          </mxGeometry>
        </mxCell>
        <mxCell id="L-PwBOsEBAyQJKKIFI6x-16" value="" style="endArrow=none;dashed=1;html=1;rounded=0;exitX=0.528;exitY=0;exitDx=0;exitDy=0;exitPerimeter=0;" edge="1" parent="1" source="L-PwBOsEBAyQJKKIFI6x-12">
          <mxGeometry width="50" height="50" relative="1" as="geometry">
            <mxPoint x="400" y="390" as="sourcePoint" />
            <mxPoint x="424" y="250" as="targetPoint" />
          </mxGeometry>
        </mxCell>
        <mxCell id="L-PwBOsEBAyQJKKIFI6x-17" value="" style="endArrow=none;dashed=1;html=1;rounded=0;" edge="1" parent="1">
          <mxGeometry width="50" height="50" relative="1" as="geometry">
            <mxPoint x="323" y="150" as="sourcePoint" />
            <mxPoint x="523" y="150" as="targetPoint" />
          </mxGeometry>
        </mxCell>
        <mxCell id="L-PwBOsEBAyQJKKIFI6x-18" value="" style="endArrow=none;dashed=1;html=1;rounded=0;" edge="1" parent="1">
          <mxGeometry width="50" height="50" relative="1" as="geometry">
            <mxPoint x="326" y="249" as="sourcePoint" />
            <mxPoint x="526" y="249" as="targetPoint" />
          </mxGeometry>
        </mxCell>
      </root>
    </mxGraphModel>
  </diagram>
</mxfile>
